<svg width="100%" height="100%" viewBox="0 0 36 51" fill="none" xmlns="http://www.w3.org/2000/svg">
<path d="M0.0140381 0V50.25H35.9125V0H0.0140381ZM24.7232 8.58595C23.7401 8.58595 22.7806 8.58595 21.8223 8.58464C21.4422 8.58464 21.4317 8.57153 21.4317 8.19794V4.75439C21.4317 4.369 21.4894 4.31133 21.8669 4.31133H29.8577C30.2274 4.31133 30.3323 4.4175 30.3323 4.79896C30.3323 5.4583 30.3362 6.11765 30.3283 6.777C30.327 6.88187 30.2969 6.9946 30.2471 7.08767C30.0177 7.52024 29.783 7.95151 29.5379 8.37753C29.3098 8.7734 29.0621 9.15878 28.8314 9.55334C28.4591 10.1917 28.0973 10.834 27.7263 11.4724C27.4917 11.8735 27.2492 12.2681 27.0132 12.6679C26.9818 12.7216 26.9713 12.7885 26.9425 12.875C28.0121 12.875 29.0398 12.8737 30.0662 12.875C30.4555 12.875 30.4568 12.8763 30.4581 13.2538C30.4581 14.4008 30.4529 15.5491 30.462 16.6974C30.4647 16.9779 30.3886 17.0932 30.057 17.0932C27.2649 17.088 24.4715 17.0906 21.6795 17.0906C21.336 17.0906 21.243 16.9949 21.243 16.6502C21.243 16.1023 21.2731 15.5517 21.2338 15.0064C21.201 14.5384 21.3636 14.1662 21.6008 13.7886C22.1632 12.8933 22.6967 11.9797 23.2538 11.0805C23.4753 10.7239 23.7388 10.3923 23.9616 10.0357C24.233 9.60053 24.4807 9.15092 24.735 8.70523C24.7494 8.68164 24.7298 8.63969 24.7232 8.58595ZM22.2313 18.2769C22.4607 18.2743 22.6049 18.3687 22.7412 18.5352C23.0755 18.9402 23.4163 19.34 23.765 19.732C24.0914 20.0977 24.4388 20.4437 24.7652 20.8108C25.2344 21.3364 25.6919 21.8725 26.2215 22.3916C26.2241 22.3248 26.2307 22.2566 26.2307 22.1898V18.6964C26.2307 18.3228 26.2687 18.2822 26.6344 18.2822C27.7814 18.2809 28.9297 18.2874 30.0767 18.2782C30.3873 18.2756 30.4594 18.3621 30.4594 18.6676C30.4542 22.5633 30.4542 26.4605 30.4555 30.3576C30.4555 31.0117 30.4909 30.9894 29.8315 30.9868C29.0005 30.9828 28.1707 30.9828 27.3396 30.9881C27.1666 30.9894 27.0473 30.9356 26.9346 30.798C26.5741 30.3589 26.2018 29.9302 25.8256 29.5055C25.5163 29.1555 25.1912 28.8199 24.8818 28.4713C24.5895 28.1422 24.3155 27.7975 24.0232 27.4685C23.824 27.2443 23.6077 27.0346 23.3547 26.7724V29.2866C23.3547 29.7493 23.3521 30.2121 23.3573 30.6748C23.3586 30.8858 23.2643 30.9854 23.0545 30.9854C21.821 30.9854 20.5875 30.9854 19.3554 30.9854C19.1404 30.9854 19.0512 30.8635 19.0421 30.6695C19.0342 30.5162 19.0421 30.3615 19.0421 30.2081C19.0421 26.3713 19.0447 22.5345 19.0368 18.6977C19.0355 18.408 19.1679 18.2704 19.4576 18.2756C20.3831 18.2913 21.3072 18.2887 22.2326 18.2769H22.2313ZM5.62571 4.76881C5.62571 4.43323 5.74762 4.31133 6.07926 4.31133C7.59458 4.31133 9.1099 4.30346 10.6252 4.31526C11.3816 4.32181 12.0802 4.58398 12.7501 4.90907C13.2482 5.14895 13.6336 5.53958 13.8905 6.01934C14.0622 6.34312 14.1868 6.71408 14.2366 7.07587C14.3113 7.63035 14.3362 8.20712 14.1304 8.74063C13.9967 9.08406 13.7883 9.40784 13.568 9.70802C13.3976 9.94266 13.1591 10.1262 12.9441 10.3398C13.5431 10.5325 14.0399 10.8786 14.4922 11.3308C14.9562 11.7962 15.1869 12.3611 15.2957 12.9667C15.3665 13.3561 15.3075 13.7808 15.2446 14.1793C15.1922 14.5109 15.0558 14.8294 14.9497 15.1506C14.7858 15.6435 14.3912 15.9607 14.0098 16.2504C13.5064 16.6318 12.893 16.7904 12.2677 16.9097C11.0054 17.1522 9.73386 17.0762 8.46497 17.0893C7.66012 17.0959 6.85527 17.0893 6.05042 17.0893C5.75286 17.0893 5.62571 16.9582 5.62571 16.6607V4.76881ZM15.8987 42.8445C14.0111 44.9143 10.8218 45.5304 8.31291 44.2733C4.09859 42.1629 3.59916 36.0951 7.46743 33.3685C8.90279 32.3553 10.6724 32.0407 12.3857 32.3526C12.796 32.4274 13.2062 32.5348 13.5969 32.6804C13.9193 32.8009 14.2195 32.9858 14.5184 33.1627C14.8055 33.3331 15.0781 33.5271 15.3547 33.7146C15.6654 33.9269 15.7086 34.1354 15.4622 34.412C15.1266 34.7908 14.7635 35.1434 14.4214 35.517C14.133 35.8342 13.863 36.1685 13.5746 36.4857C13.357 36.7256 13.2705 36.7295 13.0332 36.5263C12.3227 35.9155 11.4891 35.7346 10.5898 35.8801C10.1625 35.9483 9.78367 36.1763 9.42974 36.4372C9.0378 36.7269 8.76646 37.0913 8.59736 37.5488C8.38894 38.1098 8.36928 38.684 8.50036 39.2515C8.57377 39.5727 8.72451 39.8939 8.91065 40.1678C9.20428 40.6004 9.65258 40.8652 10.1114 41.1077C10.4469 41.286 10.7956 41.3489 11.1679 41.3607C11.6739 41.3764 12.1248 41.2073 12.5351 40.9451C12.8327 40.7564 13.0909 40.5047 13.3622 40.2766C13.4094 40.2373 13.4356 40.1744 13.5117 40.0656C12.8536 40.0656 12.2638 40.0656 11.6752 40.0643C11.2557 40.0643 11.2072 40.0131 11.2072 39.595C11.2085 39.0641 11.2046 38.5332 11.2072 38.0023C11.2099 37.7061 11.2597 37.6536 11.5507 37.6536C13.4356 37.6523 15.3193 37.6523 17.2043 37.6536C17.5005 37.6536 17.5451 37.7008 17.5451 37.9997C17.5477 39.806 17.1505 41.4734 15.8987 42.8445ZM11.2859 31.0182C7.86068 31.009 4.87591 28.04 4.90999 24.5702C4.94408 21.1883 7.90525 18.2114 11.3711 18.2481C14.7465 18.2848 17.8125 21.1791 17.6657 24.6633C17.7915 28.1422 14.6875 31.0261 11.2859 31.0182ZM16.6695 17.105C16.3811 17.109 16.2448 16.9949 16.2474 16.6882C16.2579 14.7023 16.2526 12.7151 16.2526 10.7292V4.79633C16.2526 4.4411 16.3785 4.31657 16.7376 4.31657H19.3567C19.6673 4.31657 19.7656 4.40702 19.767 4.71506C19.7709 5.54613 19.767 6.37589 19.767 7.20695C19.767 10.3661 19.7643 13.5252 19.7709 16.6843C19.7709 16.9949 19.6949 17.109 19.3645 17.105C18.4666 17.0919 17.5674 17.0932 16.6682 17.105H16.6695ZM29.5654 42.8105C28.2402 44.3035 26.4981 44.9366 24.7848 44.8921C21.5248 44.8055 18.3696 42.2612 18.3932 38.4978C18.4024 36.8816 18.9896 35.4043 20.1143 34.2062C21.3727 32.8652 22.9719 32.1744 24.7888 32.1993C30.1435 32.2701 33.2122 38.6997 29.5654 42.8105Z" fill="#FFFFFF"/>
</svg>