<svg width="186" height="29" viewBox="0 0 186 29" fill="none" xmlns="http://www.w3.org/2000/svg">
<path d="M51.4756 27.0642V4.70898H55.4848V27.0642H51.4756Z" fill="black"/>
<path d="M68.5317 10.9312C72.0918 10.9312 74.1125 13.1122 74.1125 16.8649V27.0642H70.2637V17.8271C70.2637 16.7366 70.2637 14.299 67.345 14.299C63.7527 14.299 63.7527 17.9233 63.7527 20.7457V27.0642H59.9039V11.252H63.7527V13.0802C64.8753 11.5727 66.6073 10.9312 68.5317 10.9312Z" fill="black"/>
<path d="M82.5884 27.385C79.2528 27.385 76.719 25.3643 75.9492 22.9588L79.0282 21.5797C79.4452 22.7343 80.2791 24.1776 82.396 24.1776C84.1921 24.1776 84.9618 23.1513 84.9618 22.3174C84.9618 19.6552 76.8152 21.4193 76.8152 15.5498C76.8152 12.5029 79.5735 10.9312 82.6205 10.9312C85.3467 10.9312 87.4315 12.2142 88.6182 14.3631L85.6354 15.9989C85.0901 15.0046 84.2242 13.9782 82.4922 13.9782C81.2413 13.9782 80.4716 14.5876 80.4716 15.3253C80.4716 17.7308 88.7465 16.3196 88.7465 22.0928C88.7465 25.7813 85.5712 27.385 82.5884 27.385Z" fill="black"/>
<path d="M99.7876 14.299H95.8425V22.3494C95.8425 23.6003 96.6123 24.1776 97.8632 24.1776C98.4084 24.1776 99.082 24.0493 99.7876 23.8248V26.9039C98.8254 27.2246 97.8632 27.385 96.901 27.385C94.2389 27.385 91.9937 26.0058 91.9937 22.6381V14.299H89.4278V11.252H91.9937V8.205L95.8425 5.35045V11.252H99.7876V14.299Z" fill="black"/>
<path d="M108.739 10.9312C112.909 10.9312 115.507 13.2726 115.507 17.0894V27.0642H111.979L111.658 25.0115C110.728 26.4869 108.932 27.385 106.847 27.385C103.511 27.385 101.138 25.236 101.138 22.2211C101.138 20.3609 101.972 18.9496 103.511 18.244C104.57 17.7629 105.917 17.5384 107.713 17.5384H111.658V17.0894C111.658 15.3574 110.503 14.299 108.675 14.299C107.071 14.299 105.564 15.1329 104.409 16.6724L101.619 14.331C103.511 12.0538 105.852 10.9312 108.739 10.9312ZM107.456 24.1135C109.765 24.1135 111.658 22.4777 111.658 20.425H108.226C106.911 20.425 106.141 20.5854 105.628 20.9703C105.211 21.2589 104.987 21.708 104.987 22.2853C104.987 23.4079 105.917 24.1135 107.456 24.1135Z" fill="black"/>
<path d="M121.487 27.0642L116.612 11.252H120.717L123.411 21.1627L126.394 11.252H129.698L132.681 21.1306L135.407 11.252H139.512L134.637 27.0642H131.173L128.062 16.7045L124.951 27.0642H121.487Z" fill="black"/>
<path d="M147.338 27.385C142.431 27.385 139.416 23.6003 139.416 19.1421C139.416 14.6518 142.431 10.9312 147.338 10.9312C152.213 10.9312 155.26 14.6518 155.26 19.1421C155.26 23.6003 152.213 27.385 147.338 27.385ZM147.338 24.0173C150.257 24.0173 151.411 21.708 151.411 19.1421C151.411 16.5441 150.257 14.299 147.338 14.299C144.419 14.299 143.265 16.5441 143.265 19.1421C143.265 21.708 144.419 24.0173 147.338 24.0173Z" fill="black"/>
<path d="M165.809 10.9312C166.867 10.9312 167.798 11.1878 168.824 11.8293L166.964 15.2291C166.418 14.8763 165.809 14.6839 165.039 14.6839C162.698 14.6839 161.543 16.1272 161.543 19.11V27.0642H157.694V11.252H161.575V13.9462C162.249 11.9897 164.013 10.9312 165.809 10.9312Z" fill="black"/>
<path d="M170.177 27.0642V4.70898H174.026V17.6667L179.832 11.252H184.995L179.094 17.378L185.669 27.0642H181.082L176.464 19.7515L174.026 22.4456V27.0642H170.177Z" fill="black"/>
<path fill-rule="evenodd" clip-rule="evenodd" d="M18.9971 21.7827C18.9789 21.7392 18.9602 21.6957 18.941 21.6524L14.0361 10.5571L17.1415 3.5325C17.9108 1.79227 19.5542 0.776089 21.2635 0.794115C22.9727 0.776148 24.6163 1.79232 25.3855 3.5325L29.482 12.7993L33.6189 3.44174C34.6681 1.06825 37.3433 0.0416684 39.5941 1.14881C41.845 2.25596 42.8192 5.07757 41.77 7.45107L33.6557 25.806C33.2198 26.7919 32.5033 27.5456 31.6533 28.0102C31.5467 28.0743 31.437 28.1342 31.324 28.1897C29.0731 29.2969 26.3979 28.2704 25.3485 25.8968L21.2635 16.656L18.9971 21.7827Z" fill="#D2D3D7"/>
<path fill-rule="evenodd" clip-rule="evenodd" d="M8.57302 3.53281C7.52387 1.15928 4.84869 0.132737 2.59787 1.23998C0.34705 2.34723 -0.62709 5.16898 0.422069 7.54252L8.5355 25.8977C9.58465 28.2713 12.2598 29.2978 14.5106 28.1907C16.7615 27.0835 17.7356 24.2615 16.6864 21.8881L8.57302 3.53281Z" fill="#294EB2"/>
</svg>
